<!--
  - Licensed to the Apache Software Foundation (ASF) under one or more
  - contributor license agreements.  See the NOTICE file distributed with
  - this work for additional information regarding copyright ownership.
  - The ASF licenses this file to You under the Apache License, Version 2.0
  - (the "License"); you may not use this file except in compliance with
  - the License.  You may obtain a copy of the License at
  -
  -     http://www.apache.org/licenses/LICENSE-2.0
  -
  - Unless required by applicable law or agreed to in writing, software
  - distributed under the License is distributed on an "AS IS" BASIS,
  - WITHOUT WARRANTIES OR CONDITIONS OF ANY KIND, either express or implied.
  - See the License for the specific language governing permissions and
  - limitations under the License.
  -->

<svg width="200" height="36" xmlns="http://www.w3.org/2000/svg"><defs><linearGradient x1="50%" y1="0%" x2="50%" y2="100%" id="a"><stop stop-color="#4F0067" offset="0%"/><stop stop-color="#F80664" offset="100%"/></linearGradient><linearGradient x1="50%" y1="0%" x2="50%" y2="100%" id="b"><stop stop-color="#4F0067" offset="0%"/><stop stop-color="#F80664" offset="100%"/></linearGradient></defs><g fill="none" fill-rule="evenodd"><path d="M0 0h200v36H0z"/><path d="M125.124 16.76c1.758 0 3.464.072 5.16-.025 1.115-.064 1.785-.892 1.816-1.904.031-1.016-.598-1.777-1.695-2.032a3.084 3.084 0 0 0-.67-.089c-1.528-.007-3.056-.003-4.611-.003v4.053Zm.001 7.17c1.817 0 3.607.07 5.388-.03.83-.047 1.453-.649 1.728-1.502.495-1.542-.554-2.968-2.254-3.027-1.06-.036-2.124-.009-3.186-.01h-1.676v4.57Zm-2.984-13.74c2.782 0 5.515-.051 8.245.015 2.29.056 4.185 1.643 4.6 3.755.27 1.376-.074 2.62-.98 3.694-.112.133-.234.258-.35.385.35.45.743.855 1.024 1.329 1.454 2.452.382 5.523-2.358 6.68a5.605 5.605 0 0 1-2.017.453c-2.61.051-5.222.02-7.832.02-.1-.001-.202-.022-.332-.036V10.189Zm-51.328 3.93c-1.107 0-2.148.011-3.188-.014-.131-.003-.29-.172-.382-.303-.478-.675-1.121-1.1-1.902-1.313a6.972 6.972 0 0 0-3.612-.034c-1.655.425-2.723 1.516-3.237 3.145a8.196 8.196 0 0 0 .003 5.05c.618 1.94 1.977 3.05 3.955 3.275.867.098 1.768.016 2.642-.085.905-.105 1.599-.629 2.148-1.372a.92.92 0 0 1 .622-.334c.954-.036 1.91-.015 2.92-.015-.03.187-.032.322-.07.445-.524 1.637-1.557 2.84-3.115 3.502-2.564 1.09-5.199 1.165-7.784.149-2.886-1.134-4.417-3.426-4.91-6.465-.277-1.718-.16-3.422.452-5.055 1.169-3.121 3.47-4.815 6.687-5.24 2.04-.27 4.031-.036 5.887.94 1.296.683 2.28 1.666 2.749 3.107.057.177.08.365.135.617m92.133 10.033v-6.24c-1.032 0-2.04-.06-3.037.02-.833.065-1.399.61-1.635 1.43a5.988 5.988 0 0 0 0 3.338c.233.82.801 1.365 1.632 1.432.998.081 2.006.02 3.04.02Zm2.99 2.37c-.865 0-1.682.004-2.498-.001-1.236-.008-2.475.028-3.707-.041-2.548-.143-4.375-1.985-4.592-4.562-.106-1.246-.042-2.473.502-3.624.92-1.947 2.558-2.688 4.58-2.741.902-.024 1.803-.004 2.748-.004v-4.525l2.968-.839v16.336Zm5.51-7.145h5.138c-.082-1.519-1.072-2.385-2.649-2.346-1.516.039-2.463.922-2.489 2.346M180 21.702h-8.522c.005 1.306.955 2.238 2.292 2.255 1.55.02 3.099.005 4.648.005h.584v2.497c-.096.023-.176.058-.257.057-1.827-.004-3.657.044-5.481-.034-2.979-.128-5.078-2.288-5.153-5.31-.025-.99.06-2.019.313-2.972.483-1.826 1.732-2.972 3.535-3.466a7.768 7.768 0 0 1 3.923-.052c2.269.548 3.76 2.298 4 4.661.077.765.079 1.538.118 2.36m-97.54 4.785h-2.906v-.603c0-2.313.002-4.626 0-6.94-.001-1.376-.74-2.124-2.096-2.127h-1.582v9.67H72.88v-.572c0-4.785.005-9.57-.009-14.355-.001-.398.08-.59.496-.685.81-.185 1.604-.444 2.48-.694v4.264c.718 0 1.374-.017 2.029.005.571.02 1.157.013 1.71.138 1.647.375 2.868 1.8 2.903 3.506.056 2.718.018 5.438.017 8.157 0 .067-.025.133-.045.236m17.346-5.99c.15.73.226 1.492.469 2.195.375 1.088 1.27 1.608 2.502 1.607 1.244 0 2.108-.511 2.509-1.602.532-1.452.539-2.939 0-4.39-.427-1.148-1.28-1.623-2.66-1.596-1.177.023-2.026.581-2.386 1.69-.214.66-.288 1.366-.434 2.096m2.972-6.264c3.535 0 5.864 2.347 5.895 5.988.006.752-.056 1.525-.232 2.253-.768 3.173-3.266 4.458-6.155 4.281-3.729-.228-5.539-3.064-5.386-6.532a8.532 8.532 0 0 1 .507-2.573c.838-2.241 2.763-3.417 5.371-3.417m-10.813 6.798c-.902 0-1.75-.027-2.596.014-.297.014-.61.152-.876.304-.568.323-.935.825-.861 1.507.076.702.574 1.126 1.213 1.205 1.022.124 2.06.124 3.12.179v-3.21Zm-.076-2.368a2.028 2.028 0 0 0-1.95-1.841c-.835-.021-1.671-.005-2.507-.005h-.596v-2.456c1.657.092 3.304.037 4.896.31 1.734.297 3.12 2 3.17 3.755.078 2.661.02 5.326.02 8.047-.149.017-.297.046-.445.046-1.88.004-3.76.017-5.64-.002-1.904-.019-3.556-1.21-4.037-2.867-.634-2.19.844-4.462 3.198-4.878.51-.09 1.038-.094 1.558-.105.764-.017 1.529-.004 2.333-.004Zm58.184 2.279c-.985.05-1.941.03-2.876.164-.846.121-1.476.91-1.473 1.626.002.676.582 1.312 1.467 1.393.942.087 1.899.02 2.882.02v-3.203Zm2.936 5.58c-1.203 0-2.367.004-3.53-.002-1.01-.005-2.025.042-3.028-.044-2.516-.215-4.212-2.625-3.532-4.946.48-1.638 2.171-2.84 4.052-2.865 1.006-.013 2.014-.002 3.022-.002-.048-1.002-.932-1.822-1.972-1.842a63.708 63.708 0 0 0-2.663.002c-.34.008-.466-.1-.45-.45.024-.511.013-1.025.004-1.536-.005-.25.047-.4.342-.394 1.304.027 2.614-.032 3.911.078 2.138.18 3.831 1.982 3.881 4.147.059 2.523.014 5.048.011 7.572 0 .067-.022.135-.048.282Zm-42.401-.051v-2.595h.6c1.34 0 2.68.018 4.02-.012.35-.008.736-.095 1.036-.27.557-.325.563-1.03-.012-1.313-.728-.358-1.51-.613-2.282-.872-.593-.198-1.217-.3-1.808-.504-1.325-.458-2.024-1.46-2.167-2.834-.143-1.378.465-2.42 1.669-3.02.593-.295 1.28-.51 1.934-.54 1.593-.077 3.192-.026 4.828-.026v2.473c-.993 0-1.963-.01-2.933.003-.66.008-1.32.03-1.978.083a1.29 1.29 0 0 0-.62.24c-.393.287-.378.762.057.978.495.246 1.026.429 1.554.595.647.203 1.31.354 1.961.54.268.076.532.167.787.277 1.662.715 2.359 1.821 2.207 3.486-.147 1.61-1.212 2.843-2.812 3.204a6.725 6.725 0 0 1-1.395.15c-1.479.017-2.959.003-4.438 0-.05 0-.101-.02-.208-.043M140.5 10.195v16.28h-2.935v-.56c0-4.783.007-9.565-.012-14.348-.002-.444.135-.61.544-.707.792-.187 1.571-.431 2.403-.665" fill="#4C0067"/><path fill="#FDB4D0" d="M28.071 27.63H8.557L2.993 17.479H28.07z"/><path d="M12.802.017C9.1.037 6.258 1.677 4.351 4.845 2.905 7.246 1.541 9.697.125 12.117c-.165.28-.167.477-.002.76 1.421 2.438 2.781 4.911 4.242 7.325 1.891 3.12 4.693 4.766 8.364 4.782 5.95.028 11.9.008 17.85.008h.662c-3.164-4.22-3.087-8.376-.031-12.545-2.718-2.992-3.402-8.384.05-12.44h-.66C27.04.008 23.48 0 19.92 0c-2.372 0-4.745.003-7.118.017m.057 21.578c-2.462-.01-4.344-1.089-5.598-3.209-1.088-1.837-2.138-3.698-3.218-5.54-.153-.262-.158-.46-.003-.724 1.077-1.843 2.122-3.704 3.208-5.54 1.253-2.12 3.146-3.198 5.597-3.215 4.131-.027 8.264-.007 12.396-.007h.559c-.089.627-.188 1.195-.247 1.767-.257 2.465.246 4.77 1.5 6.904.197.335.193.567-.002.901-1.485 2.546-1.925 5.274-1.347 8.164.021.103.041.208.057.311.005.034-.006.07-.017.166-.174.008-.358.025-.541.025-2.414.001-4.828.005-7.24.005-1.702 0-3.403-.002-5.104-.008" fill="url(#a)" transform="translate(0 5)"/><path d="M34.044.362c-2.138 2.459-2.709 5.276-1.941 8.4.343 1.396 1.041 2.614 2.02 3.724-.125.157-.208.27-.296.376-2.836 3.439-2.744 8.472.236 11.796.16.18.467.306.713.319.312.016.627.022.94.023h.144c.416-.001.831-.008 1.246-.008h1.379c-2.082-1.81-2.843-2.947-3.247-4.828-.391-1.815-.133-3.483 1.187-4.872.18-.189.508-.324.771-.333 1.094-.037 2.19-.017 3.285-.014.17.001.341.025.557.041v2.208H43v-9.38h-1.966c0 .632-.016 1.214.006 1.794.013.349-.11.462-.456.456-.865-.02-1.747-.113-2.592.017-1.28.198-1.886-.516-2.366-1.48-.188-.375-.365-.777-.434-1.186-.404-2.419.346-4.489 1.988-6.26.36-.392.785-.727 1.245-1.147-1.242 0-2.403.012-3.564-.008h-.027a.954.954 0 0 0-.79.362" fill="url(#b)" transform="translate(0 5)"/></g></svg>
