<svg width="28" height="32" xmlns="http://www.w3.org/2000/svg"><g fill="none"><path d="M4.243 29.866A4.217 4.217 0 0 0 7.895 32c.717-.006 1.42-.2 2.04-.564a2.146 2.146 0 0 1 2.147 0 4.148 4.148 0 0 0 3.964.073 2.206 2.206 0 0 1 2.074 0c2.007 1.037 4.464.29 5.576-1.694l-19.453.051Z" fill="#000"/><path d="m25.915 22.5-.05-.83C25.357 13.474 22.34 5.775 17.373 0v22.105l8.542.395Zm-9.707-.452V4.628a29.407 29.407 0 0 0-8.324 17.036l8.324.384Z" fill="#006FFF"/><path d="m8.564 23.279-.67-1.609L0 21.303l2.169 5.21a3.678 3.678 0 0 0 4.984 1.406c.81-.463 1.8-.463 2.61 0a3.657 3.657 0 0 0 3.562 0c.81-.463 1.8-.463 2.61 0a3.657 3.657 0 0 0 3.562 0c.81-.463 1.8-.463 2.61 0a3.672 3.672 0 0 0 4.995-1.406L28 24.68l-18.672-.864a.859.859 0 0 1-.764-.536Z" fill="#000"/></g></svg>