<!--
  - Licensed to the Apache Software Foundation (ASF) under one or more
  - contributor license agreements.  See the NOTICE file distributed with
  - this work for additional information regarding copyright ownership.
  - The ASF licenses this file to You under the Apache License, Version 2.0
  - (the "License"); you may not use this file except in compliance with
  - the License.  You may obtain a copy of the License at
  -
  -     http://www.apache.org/licenses/LICENSE-2.0
  -
  - Unless required by applicable law or agreed to in writing, software
  - distributed under the License is distributed on an "AS IS" BASIS,
  - WITHOUT WARRANTIES OR CONDITIONS OF ANY KIND, either express or implied.
  - See the License for the specific language governing permissions and
  - limitations under the License.
  -->

<svg width="22" height="24" xmlns="http://www.w3.org/2000/svg" xmlns:xlink="http://www.w3.org/1999/xlink"><defs><path id="a" d="M0 0h22v23.215H0z"/></defs><g fill="none" fill-rule="evenodd"><mask id="b" fill="#fff"><use xlink:href="#a"/></mask><path d="M14.689 9.042H4.227l7.027-7.028-1.133 3.115h8.786a.02.02 0 0 0 .02-.014l1.85-5.087a.021.021 0 0 0-.02-.028H7.31C3.489 0 .187 2.928.008 6.744c-.19 4.06 3.055 7.427 7.074 7.427h10.69l-7.027 7.028 1.133-3.113H3.089a.022.022 0 0 0-.02.014l-1.852 5.086a.02.02 0 0 0 .02.029h13.68c4.02 0 7.266-3.367 7.075-7.427-.18-3.818-3.482-6.746-7.303-6.746" fill="#5A81FF" mask="url(#b)"/></g></svg>
