<svg width="200" height="36" xmlns="http://www.w3.org/2000/svg" xmlns:xlink="http://www.w3.org/1999/xlink"><defs><path id="a" d="M0 0h16.808v16.971H0z"/><path id="c" d="M0 0h14.947v16.971H0z"/><path id="e" d="M0 0h14.947v16.971H0z"/><path id="g" d="M0 0h14.947v16.971H0z"/><path id="i" d="M0 0h14.948v17H0z"/><path id="k" d="M0 0h15.964v17H0z"/></defs><g fill="none" fill-rule="evenodd"><path d="M0 0h200v36H0z"/><path fill="#2E3033" d="M65.617 9v10.708L57.993 9h-4.032v16.971h3.719V15.263l7.623 10.708h4.033V9zm82.535 3.756c-.684 0-1.242.56-1.242 1.251v6.956c0 .69.558 1.252 1.242 1.252h6.887c.685 0 1.242-.561 1.242-1.252v-6.956c0-.69-.557-1.251-1.242-1.251h-6.887Zm6.887 13.215h-6.887c-2.735 0-4.96-2.246-4.96-5.008v-6.956c0-2.76 2.225-5.007 4.96-5.007h6.887c2.735 0 4.961 2.246 4.961 5.007v6.956c0 2.762-2.226 5.008-4.96 5.008Z"/><g transform="translate(0 9)"><mask id="b" fill="#fff"><use xlink:href="#a"/></mask><path d="M4.96 3.756c-.684 0-1.241.56-1.241 1.251v6.956c0 .69.557 1.252 1.242 1.252h6.887c.684 0 1.242-.561 1.242-1.252V5.007c0-.69-.558-1.251-1.242-1.251H4.96Zm6.888 13.215H4.96c-2.734 0-4.96-2.246-4.96-5.008V5.007C0 2.247 2.226 0 4.96 0h6.888c2.734 0 4.96 2.246 4.96 5.007v6.956c0 2.762-2.226 5.008-4.96 5.008Z" fill="#2E3033" mask="url(#b)"/></g><g transform="translate(89.925 9)"><mask id="d" fill="#fff"><use xlink:href="#c"/></mask><path fill="#2E3033" mask="url(#d)" d="M3.72 10.377h9.196V6.621H3.719V3.756H14.27V0H0v16.97h13.593l1.354-3.756H3.72z"/></g><g transform="translate(36.804 9)"><mask id="f" fill="#fff"><use xlink:href="#e"/></mask><path fill="#2E3033" mask="url(#f)" d="M3.719 10.377h9.197V6.621H3.719V3.756H14.27V0H0v16.97h13.593l1.354-3.756H3.72z"/></g><g transform="translate(19.545 9)"><mask id="h" fill="#fff"><use xlink:href="#g"/></mask><path d="M11.229 6.375c0 .691-.556 1.252-1.24 1.252h-6.27V3.766l6.273.016a1.246 1.246 0 0 1 1.237 1.251v1.342ZM9.987 0H0v16.97h3.72v-5.588h6.267c2.74 0 4.96-2.241 4.96-5.006v-1.37C14.947 2.24 12.727 0 9.987 0Z" fill="#2E3033" mask="url(#h)"/></g><g transform="translate(107.08 9)"><mask id="j" fill="#fff"><use xlink:href="#i"/></mask><path d="m3.72 3.766 6.272.016a1.246 1.246 0 0 1 1.237 1.251v1.342c0 .691-.556 1.252-1.24 1.252h-6.27V3.766Zm11.228 2.61v-1.37C14.948 2.24 12.727 0 9.987 0H0v17h3.72v-5.617h3.72L10.653 17h4.295l-3.367-5.886a5 5 0 0 0 3.367-4.737Z" fill="#2E3033" mask="url(#j)"/></g><path d="M129.964 19.365h7.194v1.59a1.25 1.25 0 0 1-1.24 1.252h-6.615a1.25 1.25 0 0 1-1.24-1.252v-6.948a1.25 1.25 0 0 1 1.24-1.252h11.422c-.559-2.19-2.482-3.755-4.807-3.755h-6.615c-2.76 0-4.962 2.221-4.962 5.007v6.948c0 2.753 2.201 5.007 4.962 5.007h6.615c2.76 0 4.962-2.254 4.962-5.007v-5.346h-9.507l-1.41 3.756Z" fill="#2E3033"/><g transform="translate(71.648 9)"><mask id="l" fill="#fff"><use xlink:href="#k"/></mask><path d="M10.66 6.621H3.067l5.099-5.146-.823 2.28h6.376a.015.015 0 0 0 .014-.01L15.077.022A.015.015 0 0 0 15.063 0h-9.76C2.532 0 .137 2.144.007 4.939c-.139 2.973 2.217 5.438 5.133 5.438h7.757l-5.1 5.147.822-2.28H2.242a.016.016 0 0 0-.015.01L.883 16.98c-.003.01.004.021.015.021h9.927c2.917 0 5.273-2.466 5.134-5.439-.13-2.795-2.527-4.94-5.3-4.94" fill="#5A81FF" mask="url(#l)"/></g></g></svg>