<svg width="54" height="53" xmlns="http://www.w3.org/2000/svg" xmlns:xlink="http://www.w3.org/1999/xlink"><defs><linearGradient x1="100%" y1="50%" x2="32.171%" y2="50%" id="c"><stop stop-color="#E8E8E8" offset="0%"/><stop stop-color="#E6E6E6" offset="22.565%"/><stop stop-color="#F7F7F7" offset="100%"/></linearGradient><linearGradient x1="80.33%" y1="62.5%" x2="0%" y2="37.5%" id="d"><stop stop-color="#40C0FF" stop-opacity="0" offset="0%"/><stop stop-color="#1E8CFE" offset="100%"/></linearGradient><linearGradient x1="50%" y1="0%" x2="50%" y2="100%" id="e"><stop stop-color="#FFF" stop-opacity=".3" offset="0%"/><stop stop-color="#FFF" offset="100%"/></linearGradient><linearGradient x1="50%" y1="0%" x2="50%" y2="100%" id="f"><stop stop-color="#C1E4FF" stop-opacity="0" offset="0%"/><stop stop-color="#8EC5FE" offset="100%"/></linearGradient><linearGradient x1="1.001%" y1="41.319%" x2="50%" y2="58.681%" id="g"><stop stop-color="#F2F2F2" offset="0%"/><stop stop-color="#F0F0F0" offset="100%"/></linearGradient><linearGradient x1="50%" y1="0%" x2="50%" y2="100%" id="h"><stop stop-color="#B0DFFF" stop-opacity="0" offset="0%"/><stop stop-color="#6EB1FF" stop-opacity=".2" offset="100%"/></linearGradient><filter x="-11.5%" y="-14.6%" width="122.9%" height="145.8%" filterUnits="objectBoundingBox" id="a"><feOffset dy="2" in="SourceAlpha" result="shadowOffsetOuter1"/><feGaussianBlur stdDeviation="1.5" in="shadowOffsetOuter1" result="shadowBlurOuter1"/><feColorMatrix values="0 0 0 0 0 0 0 0 0 0 0 0 0 0 0 0 0 0 0.08 0" in="shadowBlurOuter1" result="shadowMatrixOuter1"/><feOffset dy=".5" in="SourceAlpha" result="shadowOffsetOuter2"/><feColorMatrix values="0 0 0 0 0.117647059 0 0 0 0 0.549019608 0 0 0 0 0.996078431 0 0 0 1 0" in="shadowOffsetOuter2" result="shadowMatrixOuter2"/><feMerge><feMergeNode in="shadowMatrixOuter1"/><feMergeNode in="shadowMatrixOuter2"/></feMerge></filter><path id="b" d="m1 36 24 12 24-12-24-12z"/></defs><g transform="translate(2)" fill="none" fill-rule="evenodd"><use fill="#000" filter="url(#a)" xlink:href="#b"/><use fill="url(#c)" xlink:href="#b"/><path d="M4 6.5 5 6l4 2-1 .5zm-4 2L1 8l4 2-1 .5zm8-4L9 4l4 2-1 .5zm4-2 1-.5 4 2-1 .5zm4-2 1-.5 4 2-1 .5z" transform="translate(29 37.5)" fill="url(#d)"/><path d="M4 6.5 5 6l4 2-1 .5zm-4 2L1 8l4 2-1 .5zm8-4L9 4l4 2-1 .5zm4-2 1-.5 4 2-1 .5zm4-2 1-.5 4 2-1 .5z" transform="matrix(-1 0 0 1 21 37.5)" fill="url(#d)"/><path stroke="url(#e)" stroke-width=".5" fill="#FBFBFB" d="m1 28 24 12 24-12-24-12z"/><path fill="#FFF" opacity=".85" d="m7 28 18 9 18-9-18-9z"/><path d="M25 18.441 44.118 28 25 37.559 5.882 28 25 18.441Z" stroke="url(#f)" fill="#FFF" opacity=".85"/><path fill="#F5F5F5" d="m13 31-6-3 18-9 18 9-6 3-12-6z"/><path fill="url(#g)" d="m1 28 24 12 24-12v8L25 48 1 36z"/><path fill="#F9F9F9" d="m25 40 24-12v8L25 48z"/><path fill="#ECECEC" opacity=".85" d="m32 38 12-6v5l-12 6z"/><path fill="#1E8CFE" d="m33 39 2-1v2l-2 1zm4-2 2-1v2l-2 1zm4-2 2-1v2l-2 1z"/><path fill="url(#h)" d="M1 0h48l-6 28-18 9-18-9z"/><circle fill-opacity=".1" fill="#1E8CFE" cx="19" cy="7" r="3"/><circle fill-opacity=".4" fill="#1E8CFE" cx="30" cy="16" r="3"/><circle fill-opacity=".5" fill="#1E8CFE" cx="22" cy="29" r="3"/></g></svg>