<svg width="72" height="72" xmlns="http://www.w3.org/2000/svg"><defs><linearGradient x1="0%" y1="50%" x2="100%" y2="53.648%" id="c"><stop stop-color="#F2F2F2" offset="0%"/><stop stop-color="#DBDBDB" offset="77.723%"/><stop stop-color="#F0F0F0" offset="100%"/></linearGradient><linearGradient x1="50%" y1="0%" x2="50%" y2="100%" id="d"><stop stop-color="#FFF" stop-opacity=".3" offset="0%"/><stop stop-color="#FFF" offset="100%"/></linearGradient><linearGradient x1="100%" y1="38.365%" x2="0%" y2="59.034%" id="e"><stop stop-color="#E8F3FE" offset="0%"/><stop stop-color="#8EC5FE" offset="100%"/></linearGradient><filter x="-25%" y="-75%" width="150%" height="250%" filterUnits="objectBoundingBox" id="a"><feGaussianBlur stdDeviation="4" in="SourceGraphic"/></filter><filter x="-10.1%" y="-29.5%" width="120.2%" height="159.1%" filterUnits="objectBoundingBox" id="b"><feGaussianBlur stdDeviation="1.28" in="SourceGraphic"/></filter></defs><g transform="translate(12)" fill="none" fill-rule="evenodd"><ellipse fill="#000" opacity=".04" filter="url(#a)" cx="24" cy="52" rx="24" ry="8"/><ellipse fill="#000" opacity=".08" filter="url(#b)" cx="24" cy="50.5" rx="19" ry="6.5"/><g transform="translate(0 23)"><path d="M0 12h8.5c4.182-1.33 9.591-2 15.5-2 5.909 0 11.318.67 15.5 2H48v8c0 6.627-10.745 12-24 12S0 26.627 0 20v-8Z" fill="url(#c)"/><ellipse fill="#FBFBFB" cx="24" cy="12" rx="24" ry="12"/><path d="M0 12c0 6.627 10.745 12 24 12s24-5.373 24-12" stroke="url(#d)" stroke-width=".5" opacity=".75"/></g><path d="M46 27v9l-.075.001C44.992 41.041 35.532 45 24 45S3.008 41.04 2.075 36.001L2 36v-9h44Z" fill="#656565"/><g transform="translate(0 12)"><path d="M0 12h8.5c4.182-1.33 9.591-2 15.5-2 5.909 0 11.318.67 15.5 2H48v8c0 6.627-10.745 12-24 12S0 26.627 0 20v-8Z" fill="url(#c)"/><ellipse fill="#FBFBFB" cx="24" cy="12" rx="24" ry="12"/><path d="M0 12c0 6.627 10.745 12 24 12s24-5.373 24-12" stroke="url(#d)" stroke-width=".5" opacity=".75"/></g><path d="M46 15v8h-.004l.004.182c0 5.36-9.625 9.717-21.582 9.816L24 33c-12.15 0-22-4.396-22-9.818 0-.06.001-.121.004-.181L2 15h44Z" fill="#656565"/><path d="M0 12h8.5c4.182-1.33 9.591-2 15.5-2 5.909 0 11.318.67 15.5 2H48v8c0 6.627-10.745 12-24 12S0 26.627 0 20v-8Z" fill="url(#c)"/><path d="M0 12c0 6.627 10.745 12 24 12s24-5.373 24-12" stroke="url(#d)" stroke-width=".5" opacity=".75"/><ellipse fill="#FBFBFB" cx="24" cy="12" rx="24" ry="12"/><ellipse fill="url(#e)" cx="24" cy="12.5" rx="11" ry="5.5"/><path d="M14.016 28.513C10.92 27.882 8.182 26.911 6 25.7V23c2.18 1.217 4.915 2.19 8.01 2.825C14 26 14 28 14.015 28.513Zm0 12C10.92 39.882 8.182 38.911 6 37.7V35c2.18 1.217 4.915 2.19 8.01 2.825C14 38 14 40 14.015 40.513Zm0 10.5C10.92 50.382 8.182 49.411 6 48.2v-2.7c2.18 1.217 4.915 2.19 8.01 2.825-.01.175-.01 2.175.006 2.688Z" fill="#1E8CFE"/></g></svg>