<!--
  - Licensed to the Apache Software Foundation (ASF) under one or more
  - contributor license agreements.  See the NOTICE file distributed with
  - this work for additional information regarding copyright ownership.
  - The ASF licenses this file to You under the Apache License, Version 2.0
  - (the "License"); you may not use this file except in compliance with
  - the License.  You may obtain a copy of the License at
  -
  -     http://www.apache.org/licenses/LICENSE-2.0
  -
  - Unless required by applicable law or agreed to in writing, software
  - distributed under the License is distributed on an "AS IS" BASIS,
  - WITHOUT WARRANTIES OR CONDITIONS OF ANY KIND, either express or implied.
  - See the License for the specific language governing permissions and
  - limitations under the License.
  -->

<svg width="576" height="200" xmlns="http://www.w3.org/2000/svg"><path d="M72 200c-15.75-14.625-15.108-31.192-15.108-31.192h30.216S87.75 185.375 72 200ZM72 0c.017.017 49.583 53.717 49.583 118.992 0 29.633-11.358 49.191-11.358 49.191l-12.15-7.108h-52.15l-12.15 7.108s-11.358-19.558-11.358-49.191C22.417 53.717 71.983.017 72 0ZM15.558 138.458c0 11.359 5.034 23.709 8.517 28.917H0L2.667 151Zm112.884-.008 12.891 12.542L144 167.367h-24.075c3.475-5.209 8.517-17.559 8.517-28.917ZM72 16.567c-13.292 17.55-39.108 57.441-39.108 102.425 0 13.016 2.441 23.916 4.908 31.608h68.4c2.467-7.692 4.908-18.592 4.908-31.608 0-44.984-25.816-84.875-39.108-102.425Zm26.107 60.268a9.533 9.533 0 0 1-9.84 15.757l-2.942 2.941a18.483 18.483 0 0 1-1.15 22.534l2.742 3.741c1.258-.441 2.6-.7 4.008-.7 6.65.014 12.033 5.409 12.033 12.059a12.042 12.042 0 1 1-22.5-5.992l-3.008-4.108a18.492 18.492 0 0 1-19.458-2.875l-3.359 2.916a7.208 7.208 0 1 1-7.041-5.7 7.03 7.03 0 0 1 2.45.459l3.575-3.109a18.475 18.475 0 0 1 1.616-19.916l-3.758-4.084c-.275.034-.542.084-.817.084a6.125 6.125 0 1 1 5.967-4.784l3.792 4.125a18.475 18.475 0 0 1 18.725-.3l3.208-3.208a9.533 9.533 0 0 1 15.757-9.84ZM70.017 91.45c-7.935.19-14.268 6.676-14.268 14.612 0 7.937 6.333 14.424 14.268 14.613a14.617 14.617 0 1 0 0-29.225Zm-7.634 12.275.175.008a2.333 2.333 0 1 1-.394 4.65 2.333 2.333 0 0 1 .394-4.65Zm7.459 0 .175.008a2.333 2.333 0 1 1-.394 4.65 2.333 2.333 0 0 1 .394-4.65Zm7.458 0 .175.008a2.333 2.333 0 1 1-.394 4.65 2.333 2.333 0 0 1 .394-4.65ZM217.556 131l-16.77-23.134c7.654-2.322 11.18-7.654 11.18-17.63 0-13.76-6.966-18.92-23.048-18.92h-20.296V131h13.072v-21.758h6.45L202.162 131h15.394Zm-35.862-31.476V81.636h5.246c8.772 0 12.04 1.462 12.04 8.6 0 7.568-3.268 9.288-12.04 9.288h-5.246Zm61.146 32.336c14.362 0 22.704-5.246 22.704-24.08 0-18.834-8.342-24.08-22.704-24.08-14.448 0-22.79 5.246-22.79 24.08 0 18.834 8.342 24.08 22.79 24.08Zm0-9.46c-7.482 0-9.976-3.268-9.976-14.62 0-11.266 2.322-14.792 9.976-14.792 7.482 0 9.976 3.526 9.976 14.792 0 11.352-2.322 14.62-9.976 14.62Zm53.406 9.46c4.3 0 9.718-.688 12.384-1.806V119.82c-3.354 1.29-6.794 1.72-10.492 1.72-8.514 0-12.04-3.01-12.04-13.76s3.526-13.846 11.782-13.846c3.87 0 7.31.602 10.32 1.72V85.162c-2.838-.946-7.396-1.462-11.954-1.462-14.448 0-22.962 5.246-22.962 24.08 0 18.834 8.514 24.08 22.962 24.08Zm47.558-25.628 16.512-21.672h-14.448l-12.126 17.114h-2.666V65.64h-12.47V131h12.47v-19.78h2.15L345.782 131h15.222l-17.2-24.768Zm62.436-2.15c0-11.954-3.698-20.382-19.866-20.382-14.534 0-22.962 5.246-22.962 24.08 0 18.834 8.428 24.08 22.618 24.08 8.084 0 15.05-1.634 17.802-3.268v-9.804c-3.01 1.634-9.718 3.268-15.394 3.268-8.256 0-12.126-3.01-12.556-9.632l29.928-1.892c.258-1.29.43-3.784.43-6.45Zm-30.358-.344c.258-7.31 2.838-10.664 10.492-10.664 7.31 0 8.514 4.128 8.514 9.202l-19.006 1.462Zm63.382-9.374V84.56h-9.632V73.552h-12.47V84.56h-6.106v9.804h6.106v21.758c0 12.212 4.042 15.394 15.48 15.394 2.064 0 4.214-.172 6.02-.43v-9.632c-.946.258-2.236.344-3.698.344-4.386 0-5.332-1.29-5.332-6.708V94.364h9.632ZM447.348 131h12.728V84.044h.516l11.352 35.69h13.072l11.524-35.69h.516V131h12.9V71.316h-20.64l-10.32 33.626h-.516l-9.89-33.626h-21.242V131Zm128.398-29.842c0-24.338-9.546-30.702-27.09-30.702-17.286 0-27.09 6.364-27.09 30.702 0 24.08 9.632 30.702 26.66 30.702l7.482 11.61h15.394l-10.406-13.158c9.804-2.924 15.05-11.266 15.05-29.154Zm-40.42 0c0-14.534 2.408-20.038 13.33-20.038 11.008 0 13.416 5.504 13.416 20.038 0 14.706-2.408 19.78-13.416 19.78-10.922 0-13.33-5.074-13.33-19.78Z" fill="#FF6A00"/></svg>
