<!--
  - Licensed to the Apache Software Foundation (ASF) under one or more
  - contributor license agreements.  See the NOTICE file distributed with
  - this work for additional information regarding copyright ownership.
  - The ASF licenses this file to You under the Apache License, Version 2.0
  - (the "License"); you may not use this file except in compliance with
  - the License.  You may obtain a copy of the License at
  -
  -     http://www.apache.org/licenses/LICENSE-2.0
  -
  - Unless required by applicable law or agreed to in writing, software
  - distributed under the License is distributed on an "AS IS" BASIS,
  - WITHOUT WARRANTIES OR CONDITIONS OF ANY KIND, either express or implied.
  - See the License for the specific language governing permissions and
  - limitations under the License.
  -->

<svg width="200" height="36" xmlns="http://www.w3.org/2000/svg"><defs><linearGradient x1="-.001%" y1="50%" x2="99.997%" y2="50%" id="a"><stop stop-color="#0417FF" offset="0%"/><stop stop-color="#1D8CFD" offset="100%"/></linearGradient><linearGradient x1="100.001%" y1="50%" x2="0%" y2="50%" id="b"><stop stop-color="#0417FF" offset="0%"/><stop stop-color="#1D8CFD" offset="100%"/></linearGradient></defs><g fill="none" fill-rule="evenodd"><path d="M0 0h200v36H0z"/><path d="M.028 0v7.991c0 1.09.181 2.145.508 3.124.104.3.215.583.34.868a9.965 9.965 0 0 0 3.156 3.909c.244.18.5.347.765.507A9.797 9.797 0 0 0 9.85 17.8h3.635a5.99 5.99 0 0 0 1.231-.125 5.019 5.019 0 0 0-4.866-3.908h-.028a5.825 5.825 0 0 1-2.85-.764 5.805 5.805 0 0 1-2.76-3.701c-.063-.25-.104-.5-.125-.764a4.6 4.6 0 0 1-.028-.548V0H.028Z" fill="url(#a)"/><path d="M4.032 16.808v9.966H0V11.598c.129.486.342 1.033.452 1.246a10.535 10.535 0 0 0 3.58 3.964" fill="#1E8CFE"/><path d="M6.187 8.977a5.98 5.98 0 0 0-1.23.125 5.025 5.025 0 0 0 4.866 3.902h.028a5.874 5.874 0 0 1 2.857.764 5.81 5.81 0 0 1 2.752 3.707c.063.242.105.5.126.757.02.18.027.367.027.554v7.988h4.032v-7.988a9.74 9.74 0 0 0-.514-3.13 7.761 7.761 0 0 0-.34-.861 9.835 9.835 0 0 0-3.15-3.909c-.243-.18-.5-.354-.764-.507a9.802 9.802 0 0 0-5.054-1.402H6.187Z" fill="url(#b)"/><path d="M46.763 18.363c0-1.641-.44-2.954-1.32-3.936-.891-1.007-2.032-1.51-3.421-1.51-1.482 0-2.651.55-3.507 1.648-.776.983-1.164 2.254-1.164 3.816 0 1.537.388 2.798 1.164 3.78.845 1.075 2.014 1.613 3.507 1.613 1.494 0 2.674-.544 3.543-1.63.798-.983 1.198-2.243 1.198-3.781Zm3.75 8.012c0 .798-.025 1.5-.078 2.107a14.488 14.488 0 0 1-.217 1.604c-.277 1.272-.822 2.364-1.632 3.278C47.058 35.12 44.956 36 42.283 36c-2.258 0-4.115-.608-5.574-1.821-1.505-1.249-2.374-2.977-2.605-5.185h3.924c.15.832.4 1.474.747 1.925.81 1.052 1.991 1.578 3.543 1.578 2.858 0 4.289-1.752 4.289-5.255v-2.358c-1.552 1.583-3.34 2.375-5.366 2.375-2.304 0-4.191-.832-5.661-2.496-1.482-1.689-2.223-3.798-2.223-6.331 0-2.462.689-4.555 2.067-6.277 1.48-1.826 3.437-2.74 5.869-2.74 2.13 0 3.9.791 5.314 2.376V9.883h3.906v16.492Zm4.932-16.492h3.907v1.508c.717-.75 1.354-1.265 1.91-1.543.567-.289 1.239-.434 2.014-.434 1.03 0 2.107.336 3.23 1.007l-1.788 3.572c-.741-.532-1.465-.798-2.171-.798-2.13 0-3.195 1.607-3.195 4.82v8.759h-3.907V9.883Z" fill="#333944"/><path d="M25.168 26.774h4.17V9.884h-4.17v16.89Zm-.458-23.22c0-.683.248-1.272.746-1.77a2.441 2.441 0 0 1 1.789-.745c.706 0 1.308.248 1.805.745.499.487.747 1.082.747 1.787a2.45 2.45 0 0 1-.747 1.803 2.403 2.403 0 0 1-1.788.746 2.46 2.46 0 0 1-1.806-.746 2.475 2.475 0 0 1-.746-1.82Z" fill="#0418FF"/><path d="M79.895 16.057c-.545-2.082-1.859-3.122-3.942-3.122-.475 0-.92.072-1.337.216a3.85 3.85 0 0 0-1.138.625 3.95 3.95 0 0 0-.877.98 4.538 4.538 0 0 0-.555 1.3h7.849Zm4.01 3.19h-12.12c.105 1.388.555 2.492 1.355 3.313.798.809 1.823 1.214 3.073 1.214.972 0 1.777-.231 2.414-.694.45-.332.941-.874 1.302-1.609h4.027c-.258 1.23-1.022 2.408-1.563 3.055-.537.645-1.122 1.181-1.77 1.58a7.349 7.349 0 0 1-2.1.876c-.753.185-1.57.277-2.449.277-2.524 0-4.55-.809-6.077-2.427-1.529-1.63-2.293-3.792-2.293-6.486 0-2.671.741-4.833 2.223-6.486 1.493-1.63 3.473-2.446 5.939-2.446 2.49 0 4.456.792 5.904 2.377 1.435 1.572 2.153 3.75 2.153 6.538l-.018.918Zm11.464 7.981c-4.507 0-7.151-2.481-7.815-5.779h4.186c.57 1.267 1.993 2.136 3.791 2.136 1.726 0 2.867-.858 2.867-1.885 0-.82-.958-1.627-3.321-2.014-3.374-.553-4.898-1.255-5.851-2.49-.845-1.096-1.039-2.44-.802-3.65.471-2.411 2.81-4.438 7.137-4.163 3.887.246 6.199 3.35 6.416 5.785h-3.833c-.33-1.186-1.181-2.033-2.832-2.282-1.414-.213-2.886.231-2.964 1.422-.074 1.139 1.104 1.584 3.29 1.943 5.713.938 6.846 3.542 6.789 5.56-.091 3.296-3.059 5.417-7.058 5.417m17.571 0c-4.507 0-7.151-2.481-7.815-5.779h4.186c.57 1.267 1.993 2.136 3.791 2.136 1.726 0 2.867-.858 2.867-1.885 0-.82-.958-1.627-3.321-2.014-3.374-.553-4.898-1.255-5.851-2.49-.845-1.096-1.039-2.44-.802-3.65.471-2.411 2.81-4.438 7.137-4.163 3.887.246 6.199 3.35 6.416 5.785h-3.833c-.33-1.186-1.181-2.033-2.832-2.282-1.414-.213-2.886.231-2.964 1.422-.074 1.139 1.104 1.584 3.29 1.943 5.713.938 6.846 3.542 6.789 5.56-.091 3.296-3.059 5.417-7.058 5.417" fill="#333944"/><path d="M15.613 9.966V0h4.032v15.176a7.572 7.572 0 0 0-.452-1.245 10.535 10.535 0 0 0-3.58-3.965" fill="#1E8CFE"/></g></svg>
