<svg width="201" height="37" xmlns="http://www.w3.org/2000/svg"><g fill="none" fill-rule="evenodd"><path d="M1 1h200v36H1z"/><g fill-rule="nonzero"><path d="M29.692 7.895c-.18-.587-.611-1.064-1.15-1.357L17.574 1.183c-.288-.146-.612-.183-.9-.183-.287 0-.61 0-.898.073L4.81 6.464a1.965 1.965 0 0 0-1.078 1.357L1.035 19.887a2.35 2.35 0 0 0 .396 1.76l7.586 9.572a2.6 2.6 0 0 0 1.654.77h12.081c.648.073 1.259-.22 1.654-.77l7.587-9.572c.36-.513.503-1.137.431-1.76L29.692 7.895Z" stroke="#FFF" stroke-width="1.8" fill="#FFF"/><path d="M29.692 7.895c-.18-.587-.611-1.064-1.15-1.357L17.574 1.183c-.288-.146-.612-.183-.9-.183-.287 0-.61 0-.898.073L4.81 6.464a1.965 1.965 0 0 0-1.078 1.357L1.035 19.887a2.35 2.35 0 0 0 .396 1.76l7.586 9.572a2.6 2.6 0 0 0 1.654.77h12.081c.648.073 1.259-.22 1.654-.77l7.587-9.572c.36-.513.503-1.137.431-1.76L29.692 7.895Z" fill="#326DE6"/><path d="M28.002 19.41c-.036 0-.072 0-.072-.037 0-.036-.072-.036-.144-.036-.144-.037-.287-.037-.431-.037-.072 0-.144 0-.216-.037h-.036a7.138 7.138 0 0 1-1.222-.22.439.439 0 0 1-.252-.256c.036 0 0 0 0 0l-.288-.074c.144-1.063.072-2.164-.144-3.227a10.04 10.04 0 0 0-1.258-3.007l.216-.22v-.037c0-.11.036-.257.108-.33a6.443 6.443 0 0 1 1.006-.734l.216-.11c.144-.073.252-.146.396-.22.035-.036.071-.036.107-.073.036-.037 0-.037 0-.073.324-.257.396-.697.144-1.027a.682.682 0 0 0-.503-.257c-.18 0-.36.074-.504.184l-.036.036c-.035.037-.071.074-.107.074-.108.11-.216.22-.288.33-.036.073-.108.11-.144.146a4.758 4.758 0 0 1-.899.807.504.504 0 0 1-.215.073c-.036 0-.108 0-.144-.036h-.036l-.288.183c-.288-.293-.611-.587-.899-.88-1.33-1.064-2.984-1.724-4.674-1.907l-.036-.293v.036c-.108-.073-.144-.183-.18-.293 0-.404 0-.807.072-1.247v-.037c0-.073.036-.146.036-.22.036-.146.036-.293.072-.44v-.22c.036-.367-.252-.733-.611-.77-.216-.037-.432.073-.612.257a.731.731 0 0 0-.215.513v.184c0 .146.036.293.072.44a.473.473 0 0 1 .036.22v.036c.072.404.072.807.072 1.247-.036.11-.072.22-.18.294v.073l-.036.293c-.396.037-.791.11-1.223.184-1.69.366-3.236 1.283-4.422 2.567l-.216-.147h-.036c-.036 0-.072.037-.144.037s-.144-.037-.216-.074a6.681 6.681 0 0 1-.898-.843c-.036-.073-.108-.11-.144-.147-.108-.11-.18-.22-.288-.33-.036-.036-.072-.036-.108-.073l-.036-.037a.849.849 0 0 0-.503-.183c-.216 0-.396.073-.503.257a.8.8 0 0 0 .143 1.026c.036 0 .036.037.036.037s.072.073.108.073c.108.074.252.147.396.22l.215.11c.36.22.72.44 1.007.734.072.073.144.22.108.33v-.037l.216.22c-.036.074-.072.11-.108.184-1.115 1.797-1.582 3.924-1.259 6.014l-.287.074c0 .036-.036.036-.036.036-.036.11-.144.184-.252.257a6.56 6.56 0 0 1-1.222.22c-.072 0-.144 0-.216.037-.144 0-.288.036-.432.036-.035 0-.071.037-.143.037-.036 0-.036 0-.072.037a.715.715 0 0 0-.576.843.67.67 0 0 0 .72.514c.071 0 .107 0 .18-.037.035 0 .035 0 .035-.037 0-.036.108 0 .144 0 .144-.036.288-.11.396-.147a.504.504 0 0 1 .215-.073H6.5a6.311 6.311 0 0 1 1.187-.33h.036c.108 0 .216.037.287.11.036 0 .036.037.036.037l.324-.037c.54 1.687 1.546 3.19 2.948 4.29.324.258.612.478.971.661l-.18.257c0 .036.036.036.036.036.072.11.072.257.036.367a6.04 6.04 0 0 1-.575 1.064v.036a.642.642 0 0 1-.144.184c-.072.073-.144.22-.251.366-.036.037-.036.074-.072.11 0 0 0 .037-.036.037a.763.763 0 0 0 .287.99c.072.037.18.074.252.074.288 0 .54-.184.683-.44 0 0 0-.037.036-.037 0-.037.036-.073.072-.11.036-.147.108-.257.144-.404l.072-.22c.108-.403.287-.77.467-1.136a.56.56 0 0 1 .288-.22c.036 0 .036 0 .036-.037l.144-.294a8.317 8.317 0 0 0 3.128.587c.647 0 1.294-.073 1.941-.257.396-.073.791-.22 1.151-.33l.144.257c.036 0 .036 0 .036.037a.56.56 0 0 1 .287.22c.18.367.36.733.468 1.137v.036l.072.22c.036.147.072.294.144.404.036.037.036.073.071.11 0 0 0 .037.036.037.144.256.396.44.684.44.107 0 .18-.037.287-.074a.611.611 0 0 0 .324-.403.961.961 0 0 0-.036-.55c0-.037-.036-.037-.036-.037 0-.037-.036-.073-.072-.11a1.318 1.318 0 0 0-.252-.367.642.642 0 0 0-.143-.183v-.073a4.36 4.36 0 0 1-.576-1.064.442.442 0 0 1 .036-.367c0-.036.036-.036.036-.036l-.108-.294a9.036 9.036 0 0 0 3.883-4.987l.288.036c.036 0 .036-.036.036-.036a.404.404 0 0 1 .288-.11h.036c.395.073.79.183 1.15.33h.036a.504.504 0 0 0 .216.073c.144.073.252.147.395.184.036 0 .072.036.144.036.036 0 .036 0 .072.037a.319.319 0 0 0 .18.037c.324 0 .611-.22.72-.514a.86.86 0 0 0-.648-.77ZM17.61 18.273l-.971.477-.97-.477-.253-1.063.684-.88h1.078l.683.88-.251 1.063Zm5.86-2.384c.18.77.216 1.54.144 2.31l-3.416-.99c-.323-.073-.503-.403-.431-.733a.594.594 0 0 1 .144-.257l2.697-2.493c.395.66.683 1.393.862 2.163Zm-1.941-3.52-2.949 2.127c-.251.146-.61.11-.79-.147a.336.336 0 0 1-.108-.257l-.216-3.704a6.714 6.714 0 0 1 4.063 1.98Zm-6.508-1.87.719-.147-.18 3.667c0 .33-.287.587-.611.587-.108 0-.18-.037-.288-.074l-2.984-2.163c.935-.917 2.085-1.577 3.344-1.87Zm-4.387 3.227 2.661 2.42c.252.22.288.587.072.844-.072.11-.144.146-.288.183L9.593 18.2a7.843 7.843 0 0 1 1.042-4.474Zm-.611 6.197 3.56-.623c.287 0 .575.183.61.477a.442.442 0 0 1-.035.366l-1.366 3.374a7.194 7.194 0 0 1-2.769-3.594Zm8.162 4.548a7.14 7.14 0 0 1-1.546.183c-.755 0-1.546-.146-2.265-.366l1.761-3.264c.18-.22.468-.294.72-.147.107.073.18.147.287.257l1.726 3.19a5.742 5.742 0 0 0-.683.147Zm4.387-3.19a6.936 6.936 0 0 1-2.158 2.2l-1.402-3.448a.6.6 0 0 1 .324-.696c.107-.037.215-.074.323-.074l3.596.624c-.18.513-.396.99-.683 1.393Z" fill="#FFF"/><path d="M46.16 17.833c.395-.44.755-.88 1.186-1.32.396-.477.791-.917 1.187-1.357.395-.477.755-.88 1.078-1.284.324-.403.648-.77.9-1.063h4.602c-.935 1.063-1.834 2.127-2.697 3.117-.899.99-1.834 2.017-2.877 3.044.576.55 1.115 1.1 1.618 1.724.54.66 1.08 1.32 1.618 2.053.504.697 1.007 1.43 1.439 2.127.431.697.79 1.357 1.078 1.944h-4.458c-.288-.477-.611-.954-.97-1.504-.36-.55-.756-1.1-1.116-1.687a18.06 18.06 0 0 0-1.294-1.613 8.626 8.626 0 0 0-1.294-1.284v6.125h-3.884V6.758l3.884-.624v11.699m22.652 8.435c-.827.22-1.69.403-2.553.513a19.676 19.676 0 0 1-3.272.257c-1.007.037-1.978-.147-2.912-.477a4.742 4.742 0 0 1-1.834-1.32 5.548 5.548 0 0 1-.971-2.09c-.216-.844-.288-1.76-.288-2.64v-7.739h3.884v7.298c0 1.284.18 2.2.503 2.75.324.55.935.844 1.834.844.287 0 .575 0 .899-.037.323-.036.575-.036.827-.11V12.772h3.883v13.496m12.44-6.601c0-2.567-.934-3.814-2.768-3.814-.396 0-.791.036-1.187.146a3.02 3.02 0 0 0-.934.404v7.188c.18.036.431.073.719.11.287.036.61.036.97.036a2.722 2.722 0 0 0 2.41-1.1c.539-.88.826-1.907.79-2.97m3.956.146c0 1.027-.144 2.054-.504 3.044a6.222 6.222 0 0 1-1.366 2.31 6.511 6.511 0 0 1-2.23 1.504c-.97.367-1.977.514-3.02.514-.467 0-.97-.037-1.474-.074-.503-.036-1.007-.11-1.51-.146a18.785 18.785 0 0 1-1.402-.257 4.626 4.626 0 0 1-1.187-.33V6.758l3.883-.624v6.968c.432-.183.9-.33 1.367-.44a7.028 7.028 0 0 1 1.51-.147c.899 0 1.762.147 2.589.55a5.24 5.24 0 0 1 1.87 1.467 6.32 6.32 0 0 1 1.15 2.31c.216.918.324 1.945.324 2.971m2.337.074c-.036-1.1.18-2.2.54-3.228.323-.88.826-1.65 1.473-2.347.612-.623 1.295-1.1 2.086-1.393a6.314 6.314 0 0 1 2.445-.477c1.941 0 3.487.623 4.602 1.834 1.115 1.21 1.69 3.007 1.69 5.317 0 .22 0 .477-.036.77-.036.294-.036.514-.036.734H91.5c.073.77.468 1.504 1.116 1.944.79.513 1.725.77 2.66.733.683 0 1.403-.073 2.086-.183a9.007 9.007 0 0 0 1.69-.514l.539 3.228c-.252.146-.54.22-.827.33-.396.11-.791.22-1.187.256-.431.074-.862.147-1.366.22-.467.037-.97.074-1.474.074a8.138 8.138 0 0 1-3.236-.55 6.323 6.323 0 0 1-2.265-1.504c-.612-.66-1.043-1.467-1.33-2.31-.216-.99-.36-1.944-.36-2.934m9.133-1.504a3.2 3.2 0 0 0-.18-.99c-.072-.33-.252-.587-.432-.844a2.471 2.471 0 0 0-.755-.623 2.37 2.37 0 0 0-1.114-.257 2.37 2.37 0 0 0-1.115.257c-.288.147-.575.33-.791.587a2.66 2.66 0 0 0-.503.88c-.108.33-.18.66-.216.99h5.106m14.992-2.09c-.36-.074-.755-.184-1.222-.257a7.028 7.028 0 0 0-1.51-.147c-.288 0-.576.037-.9.074a5.485 5.485 0 0 0-.754.146v10.672H103.4V13.506a18.65 18.65 0 0 1 2.445-.697 11.615 11.615 0 0 1 3.164-.33c.252 0 .504.036.755.036.288 0 .576.037.9.11.287.037.575.074.898.147.252.037.504.11.755.22l-.647 3.3m2.734-3.043a28.69 28.69 0 0 1 2.553-.55 19.676 19.676 0 0 1 3.272-.257c.97-.037 1.941.147 2.876.477a4.11 4.11 0 0 1 1.834 1.283c.467.587.79 1.284.97 2.017.216.844.288 1.724.288 2.604v7.885h-3.847v-7.371c0-1.284-.18-2.164-.503-2.714-.324-.514-.935-.807-1.834-.807-.288 0-.575 0-.899.037-.324 0-.575.036-.827.073v10.782h-3.883v-13.46m14.742 6.639c-.036-1.1.18-2.2.539-3.228.324-.88.827-1.65 1.474-2.347.611-.623 1.295-1.1 2.086-1.393a6.314 6.314 0 0 1 2.445-.477c1.941 0 3.487.623 4.602 1.834 1.115 1.21 1.69 3.007 1.69 5.354 0 .22 0 .477-.036.77-.036.294-.036.514-.036.734h-8.81c.073.77.468 1.503 1.115 1.943.791.514 1.726.77 2.661.734.683 0 1.402-.074 2.086-.184a7.85 7.85 0 0 0 1.725-.55l.54 3.228c-.252.146-.54.22-.827.33-.396.11-.791.22-1.187.256a51.24 51.24 0 0 1-1.366.22c-.467.037-.97.074-1.474.074a8.138 8.138 0 0 1-3.236-.55 6.323 6.323 0 0 1-2.265-1.504c-.612-.66-1.043-1.467-1.33-2.31-.288-.99-.432-1.98-.396-2.934m9.096-1.504a3.2 3.2 0 0 0-.18-.99c-.071-.33-.251-.587-.43-.844a2.471 2.471 0 0 0-.756-.623 2.37 2.37 0 0 0-1.114-.257 2.37 2.37 0 0 0-1.115.257 2.34 2.34 0 0 0-.755.587 2.66 2.66 0 0 0-.504.88c-.107.33-.18.66-.215.99h5.07m6.615-9.095 3.884-.623v4.107h4.674v3.3h-4.674v4.915a3.724 3.724 0 0 0 .431 1.98c.288.477.863.734 1.762.734a7.02 7.02 0 0 0 1.258-.11 6.68 6.68 0 0 0 1.223-.33l.54 3.08c-.504.22-1.044.367-1.583.514-.683.146-1.402.22-2.121.22a6.39 6.39 0 0 1-2.625-.44 4.247 4.247 0 0 1-1.654-1.21c-.431-.55-.72-1.21-.899-1.908a9.476 9.476 0 0 1-.216-2.457V9.288m10.535 10.599c-.036-1.1.18-2.2.54-3.228.323-.88.827-1.65 1.474-2.347.611-.623 1.294-1.1 2.085-1.393a6.314 6.314 0 0 1 2.445-.477c1.942 0 3.488.623 4.603 1.834 1.114 1.21 1.69 3.007 1.69 5.354 0 .22 0 .477-.036.77 0 .294-.036.514-.036.734h-8.773c.071.77.467 1.503 1.114 1.943.791.514 1.726.77 2.66.734.684 0 1.403-.074 2.086-.184a7.018 7.018 0 0 0 1.69-.55l.54 3.228c-.252.146-.54.22-.827.33-.396.11-.791.22-1.187.256a51.24 51.24 0 0 1-1.366.22c-.468.037-.971.074-1.474.074a8.138 8.138 0 0 1-3.236-.55 6.323 6.323 0 0 1-2.266-1.504c-.61-.66-1.042-1.467-1.33-2.31-.252-.99-.396-1.98-.396-2.934m9.097-1.504a3.2 3.2 0 0 0-.18-.99c-.071-.33-.251-.587-.431-.844a2.471 2.471 0 0 0-.755-.623 2.37 2.37 0 0 0-1.115-.257 2.37 2.37 0 0 0-1.114.257c-.288.147-.576.33-.791.587a2.66 2.66 0 0 0-.504.88c-.108.33-.18.66-.215.99h5.105m10.715 5.537a3.524 3.524 0 0 0 1.51-.22.82.82 0 0 0 .432-.806c-.036-.367-.252-.697-.576-.807a7.695 7.695 0 0 0-1.761-.807 13.986 13.986 0 0 1-1.654-.733c-.468-.22-.863-.514-1.259-.88a3.488 3.488 0 0 1-.79-1.247c-.217-.55-.289-1.137-.289-1.724-.035-1.21.504-2.384 1.439-3.117.97-.77 2.265-1.137 3.919-1.137.79 0 1.618.073 2.409.257.611.11 1.222.256 1.834.477l-.683 3.117c-.504-.184-.971-.294-1.475-.44-.575-.147-1.186-.184-1.762-.184-1.222 0-1.833.33-1.833 1.027 0 .147.036.294.072.44.072.147.18.257.323.367.144.11.36.22.612.367.251.146.61.293 1.042.44.72.256 1.438.587 2.086.953a3.95 3.95 0 0 1 1.294 1.027c.324.33.54.734.683 1.21.144.514.216 1.027.216 1.54.072 1.248-.503 2.458-1.546 3.155-1.007.696-2.445 1.063-4.315 1.063a10.713 10.713 0 0 1-3.056-.33 22.196 22.196 0 0 1-1.654-.513l.647-3.228c.647.257 1.33.477 2.014.624.719.036 1.402.11 2.121.11" fill="#373535"/></g></g></svg>