<svg width="28" height="27" xmlns="http://www.w3.org/2000/svg"><path d="m11.904 16.225.009.011-1.166 2.798a6.002 6.002 0 0 1-2.42-3.011l3.007-.507.004.006a.515.515 0 0 1 .494.183.508.508 0 0 1 .071.52h.001Zm-.972-2.469a.508.508 0 0 0 .202-.877l.003-.012-2.288-2.034a5.933 5.933 0 0 0-.852 3.774l2.933-.84.002-.01Zm1.336-2.295a.516.516 0 0 0 .816-.391l.012-.006.175-3.038a6.017 6.017 0 0 0-3.512 1.672l2.505 1.766.004-.002v-.001Zm.887 3.188.844.405.842-.403.21-.904-.583-.722h-.938l-.584.722.209.903v-.001Zm1.75-3.588a.516.516 0 0 0 .817.39l.01.003 2.489-1.755a6.068 6.068 0 0 0-3.49-1.671l.172 3.031.002.002Zm12.689 6.921-6.735 8.326c-.356.437-.891.69-1.456.689L8.598 27c-.565 0-1.1-.254-1.455-.691L.404 17.985a1.827 1.827 0 0 1-.358-1.554L2.45 6.049a1.835 1.835 0 0 1 1.006-1.244L13.19.182a1.884 1.884 0 0 1 1.616 0l9.736 4.62c.51.243.88.7 1.007 1.244l2.405 10.383a1.817 1.817 0 0 1-.36 1.553Zm-3.837-2.385c-.05-.011-.12-.03-.17-.04-.202-.037-.367-.028-.558-.043-.409-.043-.745-.078-1.044-.172-.123-.046-.21-.191-.252-.25l-.235-.069a7.471 7.471 0 0 0-1.215-5.211c.061-.055.175-.154.207-.184.01-.105.001-.213.11-.327.23-.215.518-.392.866-.606.166-.097.319-.158.485-.28.037-.028.088-.072.128-.103.28-.222.344-.603.144-.854-.201-.25-.59-.273-.87-.052l-.13.102c-.156.135-.252.267-.384.406-.287.29-.525.531-.785.706-.114.065-.28.043-.354.038l-.222.157a7.655 7.655 0 0 0-4.837-2.322l-.014-.259c-.075-.072-.166-.133-.19-.29-.025-.31.018-.646.067-1.05.027-.188.07-.345.079-.55.001-.046-.001-.115-.001-.164 0-.355-.261-.644-.583-.644-.321 0-.583.289-.583.644l.002.016c0 .047-.003.106 0 .148.007.205.05.362.078.55.049.404.09.74.065 1.051a.631.631 0 0 1-.189.3l-.014.244a7.513 7.513 0 0 0-4.86 2.322 9.768 9.768 0 0 1-.21-.148c-.105.014-.21.046-.347-.034-.26-.174-.498-.415-.785-.705-.132-.139-.228-.27-.384-.404a3.137 3.137 0 0 0-.13-.102.696.696 0 0 0-.405-.153.563.563 0 0 0-.465.204c-.2.25-.136.633.144.854l.008.006.121.096c.166.122.318.185.483.28.35.215.637.393.867.606.089.095.105.262.117.334l.186.166a7.455 7.455 0 0 0-1.19 5.224l-.242.07c-.064.083-.155.213-.251.251-.3.094-.637.128-1.044.17-.192.017-.356.008-.56.046-.043.008-.105.023-.155.035l-.005.002-.008.002c-.344.083-.565.397-.494.705.071.31.407.498.753.423h.008l.012-.004.15-.034c.198-.053.343-.13.523-.2.385-.136.704-.25 1.015-.296.13-.01.268.08.336.117l.253-.043a7.545 7.545 0 0 0 3.36 4.17l-.105.252c.038.097.08.23.051.327-.113.292-.307.6-.527.943-.106.157-.216.28-.313.462-.023.043-.052.11-.074.155-.15.32-.04.686.248.824.29.139.649-.008.805-.327v-.003c.023-.045.054-.104.072-.147.082-.188.11-.349.168-.53.154-.386.24-.79.452-1.04.058-.07.152-.096.25-.123l.133-.237a7.573 7.573 0 0 0 5.377.014l.124.222c.1.033.21.049.298.18.159.269.267.588.4.974.058.18.086.342.168.53l.073.15c.155.32.515.465.805.326.288-.137.398-.504.248-.823-.023-.045-.052-.111-.076-.155-.096-.181-.206-.303-.312-.462-.222-.343-.404-.627-.517-.92-.047-.15.008-.243.044-.34-.02-.026-.069-.167-.097-.234a7.543 7.543 0 0 0 3.36-4.2c.075.012.206.035.249.045.088-.058.168-.133.327-.121.31.045.63.16 1.015.297.18.07.323.148.522.2.042.012.103.022.152.033l.01.003.009.001c.346.075.681-.113.752-.423.07-.308-.15-.622-.493-.705Zm-4.624-4.762-2.275 2.024v.006a.508.508 0 0 0 .202.877l.003.012 2.947.844a6.017 6.017 0 0 0-.877-3.765v.002Zm-4.682 6.173a.514.514 0 0 0-.905.001h-.002l-1.48 2.658a6.06 6.06 0 0 0 3.88.003l-1.481-2.662h-.012Zm2.203-1.499a.516.516 0 0 0-.315.042.509.509 0 0 0-.25.663l-.003.005 1.178 2.826a5.978 5.978 0 0 0 2.428-3.031l-3.033-.51-.005.005Z" fill="#2F5EF1"/></svg>