<!--
  - Licensed to the Apache Software Foundation (ASF) under one or more
  - contributor license agreements.  See the NOTICE file distributed with
  - this work for additional information regarding copyright ownership.
  - The ASF licenses this file to You under the Apache License, Version 2.0
  - (the "License"); you may not use this file except in compliance with
  - the License.  You may obtain a copy of the License at
  -
  -     http://www.apache.org/licenses/LICENSE-2.0
  -
  - Unless required by applicable law or agreed to in writing, software
  - distributed under the License is distributed on an "AS IS" BASIS,
  - WITHOUT WARRANTIES OR CONDITIONS OF ANY KIND, either express or implied.
  - See the License for the specific language governing permissions and
  - limitations under the License.
  -->

<svg width="200" height="36" xmlns="http://www.w3.org/2000/svg"><g fill="none" fill-rule="evenodd"><path d="M0 0h200v36H0z"/><g fill-rule="nonzero"><path d="M54.425 16.151v.072l-2.216 10.991c-.292 1.434-.682 2.007-2.167 2.007h-.658c-1.314 0-1.996-.621-2.313-1.863l-1.923-7.312c-.025-.095-.025-.12-.073-.12-.05 0-.05.025-.074.12l-1.923 7.312c-.317 1.242-.998 1.863-2.313 1.863h-.658c-1.485 0-1.875-.573-2.167-2.007l-.632-3.284c-.037.155.025-.054.187-.625l.244-.858 1.124-3.958h.543l1.14 7.722c.024.215.073.334.121.334.049 0 .122-.095.17-.334l2.022-8.029c.243-.931.535-1.027 1.363-1.027h1.705c.828 0 1.12.096 1.363 1.027l2.021 8.029c.049.239.122.334.17.334.05 0 .098-.12.123-.334l1.534-10.107c.024-.215.194-.43.438-.43h2.362c.268 0 .487.215.487.477Zm11.878 12.52a.484.484 0 0 1-.487.479h-2.07a.484.484 0 0 1-.486-.478v-.383c-1.12.67-2.265 1.052-3.433 1.052-2.021 0-4.213-.765-4.213-3.99v-.096c0-2.724 1.705-4.134 5.941-4.134h1.534V20.07c0-1.553-.706-1.935-2.142-1.935-1.559 0-3.166.095-3.97.19h-.121c-.244 0-.438-.07-.438-.405v-1.53c0-.262.146-.43.462-.501a21.393 21.393 0 0 1 4.067-.383c3.457 0 5.356 1.506 5.356 4.564v8.602Zm-3.214-2.508v-2.939h-1.534c-2.215 0-2.702.693-2.702 2.03v.096c0 1.171.535 1.482 1.753 1.482.876 0 1.777-.287 2.483-.67Zm9.566 2.485c0 .263-.195.502-.463.502h-2.264a.505.505 0 0 1-.487-.502V11.444c0-.262.219-.477.487-.477h2.264c.268 0 .463.215.463.477v17.204Zm14.192.215c0 .143-.146.287-.341.287h-2.97c-.268 0-.56-.263-.707-.478l-3.823-5.448v5.424a.505.505 0 0 1-.487.502h-2.24a.505.505 0 0 1-.487-.502V11.444c0-.262.22-.477.487-.477h2.24c.268 0 .487.215.487.477v9.964l4.164-5.448a.752.752 0 0 1 .56-.286h2.727c.244 0 .366.095.366.262 0 .072-.025.144-.098.24l-4.894 5.901 4.943 6.595c.049.071.073.12.073.19Zm5.523-15.46a.485.485 0 0 1-.487.479h-2.361c-.268 0-.512-.216-.512-.478V11.3c0-.263.244-.478.512-.478h2.361c.268 0 .487.215.487.478v2.103Zm-.073 15.245a.505.505 0 0 1-.487.502h-2.24a.505.505 0 0 1-.487-.502V16.15c0-.262.22-.477.487-.477h2.24c.268 0 .487.215.487.477v12.497Zm14.339 0c0 .263-.22.502-.487.502h-2.24a.505.505 0 0 1-.488-.502v-7.79c0-2.078-.194-2.676-2.07-2.676-.827 0-1.728.335-2.75.86v9.606c0 .263-.22.502-.488.502h-2.24a.505.505 0 0 1-.487-.502V16.15c0-.262.22-.477.487-.477h2.118c.268 0 .487.215.487.477v.502c1.413-.884 2.338-1.147 3.945-1.147 3.506 0 4.213 2.318 4.213 5.352v7.79Zm14.97-11.326c0 .359-.097.406-.389.526l-.803.31c.39.55.608 1.076.608 1.912v.167c0 2.987-2.094 4.349-5.77 4.349-1.291 0-2.168-.215-2.655-.406-.292.19-.414.406-.414.62 0 .479.268.67.828.79l2.874.668c3.311.765 5.454 1.267 5.454 3.823v.168c0 2.437-1.826 3.751-5.966 3.751-3.944 0-6.038-1.458-6.038-3.966v-.215c0-.98.462-1.936 1.241-2.629a2.756 2.756 0 0 1-1.095-2.198v-.024c0-.74.316-1.481.974-1.935-.73-.74-.999-1.601-.999-2.796v-.167c0-2.39 1.583-4.396 5.795-4.396h5.698c.365 0 .658.286.658.645v1.003Zm-3.75 2.987v-.191c0-1.147-.51-2.031-2.605-2.031-2.07 0-2.63.908-2.63 2.03v.192c0 .884.366 1.888 2.63 1.888 2.021 0 2.606-.693 2.606-1.888Zm.269 9.94v-.168c0-.525-.317-.836-2.874-1.433l-2.167-.502c-.365.502-.608.812-.608 1.673v.215c0 .98.608 1.577 2.897 1.577 2.338 0 2.752-.502 2.752-1.362ZM11.688 21.222c0 2.414-1.534 4.994-6.404 4.994-1.826 0-3.141-.167-4.31-.43-.244-.048-.463-.215-.463-.478v-1.72c0-.263.22-.454.463-.454h.049c.974.12 3.409.239 4.31.239 2.167 0 2.824-.765 2.824-2.15 0-.932-.463-1.41-2.07-2.342l-3.214-1.888C.61 15.68 0 14.293 0 12.621c0-2.629 1.558-4.54 6.087-4.54 1.607 0 3.848.239 4.675.43.244.048.439.215.439.454v1.768c0 .239-.17.43-.414.43h-.049a54.183 54.183 0 0 0-4.797-.239c-1.802 0-2.556.621-2.556 1.697 0 .788.414 1.266 1.996 2.126l2.922 1.601c2.679 1.458 3.385 2.987 3.385 4.874Zm13.583 4.516c0 .144-.146.287-.34.287h-2.972c-.267 0-.56-.263-.706-.478L17.43 20.1v5.424a.505.505 0 0 1-.487.502h-2.24a.505.505 0 0 1-.487-.502V8.32c0-.263.22-.478.487-.478h2.24c.268 0 .487.215.487.478v9.963l4.164-5.447a.752.752 0 0 1 .56-.287h2.727c.244 0 .366.096.366.263 0 .072-.025.143-.098.239l-4.894 5.902 4.943 6.594c.049.072.073.12.073.191Zm13.608-12.783c0 .048 0 .096-.025.144l-4.066 13.953c-.755 2.605-1.656 3.752-4.967 3.752-.804 0-2.021-.144-2.581-.31-.268-.073-.512-.168-.512-.407v-1.53c0-.262.22-.43.487-.43h.049c.682.025 2.07.144 2.751.144 1.047 0 1.583-.287 1.924-1.53l.195-.716h-.365c-.707 0-1.583-.167-2.119-1.983l-3.19-10.943c-.024-.072-.024-.12-.024-.168 0-.239.146-.382.463-.382h2.459c.22 0 .414.215.463.43l2.459 9.725c.097.406.195.525.34.525h.22l2.63-10.274a.517.517 0 0 1 .487-.406h2.483c.244 0 .439.191.439.406Z" fill="#1890FF"/><path d="M114.03 7.355c.66-.145 1.342-.236 2.027-.272 6.868-.36 12.728 4.846 13.083 11.623a12.13 12.13 0 0 1-1.583 6.622c4.848-1.7 8.132-6.342 7.854-11.64-.338-6.448-5.925-11.412-12.46-11.07a11.984 11.984 0 0 0-8.922 4.737Z" fill="#D8D8D8"/></g></g></svg>
