<svg width="72" height="49" xmlns="http://www.w3.org/2000/svg"><defs><linearGradient x1="0%" y1="50%" x2="100%" y2="53.648%" id="c"><stop stop-color="#F0F0F0" offset="0%"/><stop stop-color="#DBDBDB" offset="22.277%"/><stop stop-color="#F2F2F2" offset="100%"/></linearGradient><linearGradient x1="50%" y1="0%" x2="50%" y2="100%" id="d"><stop stop-color="#FFF" stop-opacity=".3" offset="0%"/><stop stop-color="#FFF" offset="100%"/></linearGradient><linearGradient x1="50%" y1="0%" x2="50%" y2="100%" id="e"><stop stop-color="#C1E4FF" stop-opacity="0" offset="0%"/><stop stop-color="#8EC5FE" offset="100%"/></linearGradient><filter x="-25%" y="-75%" width="150%" height="250%" filterUnits="objectBoundingBox" id="a"><feGaussianBlur stdDeviation="4" in="SourceGraphic"/></filter><filter x="-10.1%" y="-29.5%" width="120.2%" height="159.1%" filterUnits="objectBoundingBox" id="b"><feGaussianBlur stdDeviation="1.28" in="SourceGraphic"/></filter></defs><g transform="translate(12)" fill="none" fill-rule="evenodd"><ellipse fill="#000" opacity=".04" filter="url(#a)" cx="24" cy="29" rx="24" ry="8"/><ellipse fill="#000" opacity=".08" filter="url(#b)" cx="24" cy="27.5" rx="19" ry="6.5"/><path d="M0 12h8.5c4.182-1.33 9.591-2 15.5-2 5.909 0 11.318.67 15.5 2H48v8c0 6.627-10.745 12-24 12S0 26.627 0 20v-8Z" fill="url(#c)"/><path stroke="#1E8CFE" stroke-linecap="round" d="M39 24v3"/><path stroke="#1E8CFE" opacity=".8" stroke-linecap="round" d="M42 22.5v3"/><path d="M0 12c0 6.627 10.745 12 24 12s24-5.373 24-12" stroke="url(#d)" stroke-width=".5" opacity=".75"/><ellipse fill="#FBFBFB" cx="24" cy="12" rx="24" ry="12"/><ellipse stroke="url(#e)" fill="#FFF" opacity=".85" cx="24" cy="11.5" rx="19" ry="9.5"/></g></svg>