<!--
  - Licensed to the Apache Software Foundation (ASF) under one or more
  - contributor license agreements.  See the NOTICE file distributed with
  - this work for additional information regarding copyright ownership.
  - The ASF licenses this file to You under the Apache License, Version 2.0
  - (the "License"); you may not use this file except in compliance with
  - the License.  You may obtain a copy of the License at
  -
  -     http://www.apache.org/licenses/LICENSE-2.0
  -
  - Unless required by applicable law or agreed to in writing, software
  - distributed under the License is distributed on an "AS IS" BASIS,
  - WITHOUT WARRANTIES OR CONDITIONS OF ANY KIND, either express or implied.
  - See the License for the specific language governing permissions and
  - limitations under the License.
  -->

<svg width="200" height="43" xmlns="http://www.w3.org/2000/svg" xmlns:xlink="http://www.w3.org/1999/xlink"><defs><path id="a" d="M0 0h30v43H0z"/></defs><g fill="none" fill-rule="evenodd"><path d="M0 0h200v43H0z"/><mask id="b" fill="#fff"><use xlink:href="#a"/></mask><path d="M18.694 35.548h.652c.18 0 .315.038.404.114.09.076.134.191.134.345 0 .159-.043.276-.128.352-.086.076-.219.114-.4.114h-.662v-.925Zm0 1.703h.814c.438 0 .774-.109 1.007-.328.233-.22.35-.534.35-.945 0-.391-.119-.69-.355-.898-.237-.207-.582-.31-1.034-.31H17.69v3.86h1.004v-1.379Zm-.87 2.565h1.119v3.077h.998v-3.077h1.119v-.784h-3.236v.784Zm2.744-13.277c0 1.293-.51 2.508-1.434 3.422l-.386.383v-1.62c0-1.917.641-3.734 1.82-5.217v3.032Zm8.567-10.482c.498-.13.865-.578.865-1.111 0-.636-.521-1.152-1.164-1.152-.643 0-1.164.516-1.164 1.152 0 .496.318.919.764 1.08-.39 4.349-3.111 8.19-7.17 10.02v-3.32l1.461-1.445a9.842 9.842 0 0 0 2.951-7.045V10.65a2.595 2.595 0 0 0 1.863-2.48c0-1.431-1.173-2.591-2.62-2.591-1.446 0-2.62 1.16-2.62 2.59 0 1.17.786 2.16 1.864 2.48v3.588a8.368 8.368 0 0 1-2.508 5.987l-.39.386v-5.275a2.02 2.02 0 0 0 1.687-1.983 2.026 2.026 0 0 0-2.037-2.015 2.026 2.026 0 0 0-2.037 2.015c0 .995.73 1.82 1.688 1.983V21.3l-.383.378a9.843 9.843 0 0 0-2.95 7.046v4.347h1.513v-1.75l.88-.871a5.464 5.464 0 0 0 1.632-3.644l.107-.047c4.404-1.902 7.36-6.027 7.768-10.702ZM15.887 39.76c.209 0 .377.046.505.14a.705.705 0 0 1 .26.417h.939c-.042-.426-.213-.762-.513-1.008-.3-.247-.686-.37-1.159-.37-.597 0-1.074.186-1.43.558-.356.373-.534.871-.534 1.497 0 .6.175 1.085.525 1.454.35.37.81.553 1.38.553.478 0 .867-.127 1.168-.382.301-.255.485-.614.552-1.078h-.927a.727.727 0 0 1-.253.472c-.135.109-.315.163-.54.163a.76.76 0 0 1-.649-.314c-.153-.208-.23-.501-.23-.879 0-.379.081-.677.244-.896a.782.782 0 0 1 .662-.327Zm11.925 1.52h1.796v-.774h-1.796v-.68h1.966v-.793h-2.965v3.86h3.029v-.788h-2.03v-.826Zm-6.289 1.614h.997v-3.86h-.997v3.86Zm3.337-1.814a17.22 17.22 0 0 0-.191.697c-.036-.16-.086-.36-.154-.597a22.16 22.16 0 0 1-.045-.163l-.548-1.984h-1.06l1.34 3.86h.936l1.349-3.86h-1.052l-.575 2.047ZM3.214 42.893h2.379l5.275-5.599v2.087H9.506l-1.768 1.876h3.13v1.636h1.898V34.77h-1.898l-7.654 8.123Zm6.218-19.386a8.342 8.342 0 0 1 1.82 5.217v1.62l-.386-.383a4.782 4.782 0 0 1-1.434-3.422v-3.032Zm-.8 3.252.108.047a5.464 5.464 0 0 0 1.632 3.644l.88.87v1.75h1.514v-4.346a9.843 9.843 0 0 0-2.95-7.046l-.384-.378v-2.598a2.02 2.02 0 0 0 1.688-1.983 2.026 2.026 0 0 0-2.037-2.015 2.026 2.026 0 0 0-2.037 2.015c0 .995.73 1.82 1.688 1.983v1.907l-.391-.386a8.364 8.364 0 0 1-2.507-5.987v-1.378a2.595 2.595 0 0 0 1.862-2.48c0-1.432-1.173-2.591-2.62-2.591-1.446 0-2.619 1.16-2.619 2.59 0 1.17.785 2.16 1.863 2.48v1.38a9.842 9.842 0 0 0 2.95 7.044l1.462 1.445v3.32c-4.059-1.83-6.78-5.671-7.17-10.02a1.15 1.15 0 0 0 .764-1.08c0-.636-.52-1.152-1.164-1.152-.643 0-1.164.516-1.164 1.152 0 .533.367.98.865 1.111.408 4.675 3.364 8.8 7.768 10.702Zm5.32-20.009v26.32h2.096V6.75c1.417-.44 2.445-1.75 2.445-3.296C18.493 1.546 16.929 0 15 0c-1.93 0-3.493 1.546-3.493 3.454a3.46 3.46 0 0 0 2.445 3.296Zm1.003 28.798h.652c.18 0 .315.038.404.114.09.076.134.191.134.345 0 .159-.043.276-.128.352-.086.076-.22.114-.4.114h-.662v-.925Zm0 1.703h.814c.438 0 .774-.109 1.007-.328.233-.22.35-.534.35-.945 0-.391-.119-.69-.356-.898-.236-.207-.58-.31-1.033-.31h-1.786v3.86h1.004v-1.379Z" fill="#3C78FF" mask="url(#b)"/></g></svg>
