<svg width="24" height="34" xmlns="http://www.w3.org/2000/svg" xmlns:xlink="http://www.w3.org/1999/xlink"><defs><path id="a" d="M0 0h24v34H0z"/></defs><g fill="none" fill-rule="evenodd"><mask id="b" fill="#fff"><use xlink:href="#a"/></mask><path d="M14.956 28.108h.521c.144 0 .252.03.323.09.072.06.107.15.107.272 0 .126-.034.219-.102.279-.07.06-.175.09-.32.09h-.53v-.731Zm0 1.347h.65c.35 0 .62-.087.806-.26.186-.174.28-.423.28-.747 0-.31-.095-.546-.284-.71-.19-.164-.465-.246-.827-.246h-1.429v3.053h.804v-1.09Zm-.697 2.028h.895v2.432h.8v-2.432h.894v-.62h-2.589v.62Zm2.195-10.499a3.76 3.76 0 0 1-1.147 2.706l-.309.303v-1.281c0-1.515.513-2.952 1.456-4.125v2.397Zm6.854-8.288a.914.914 0 0 0 .692-.879.921.921 0 0 0-.931-.91.921.921 0 0 0-.932.91c0 .393.255.727.612.855-.312 3.438-2.489 6.475-5.736 7.922v-2.625l1.169-1.142a7.738 7.738 0 0 0 2.36-5.57V8.42c.863-.254 1.49-1.036 1.49-1.961 0-1.131-.938-2.049-2.095-2.049-1.157 0-2.096.918-2.096 2.049 0 .925.629 1.707 1.49 1.961v2.836a6.575 6.575 0 0 1-2.005 4.734l-.313.305v-4.17c.767-.13 1.35-.782 1.35-1.568 0-.88-.73-1.594-1.63-1.594-.9 0-1.63.714-1.63 1.594 0 .786.584 1.438 1.351 1.568v4.717l-.306.299a7.738 7.738 0 0 0-2.36 5.57v3.438h1.21v-1.384l.704-.688a4.298 4.298 0 0 0 1.306-2.882l.086-.037c3.522-1.504 5.887-4.765 6.214-8.462ZM12.71 31.437c.166 0 .301.037.404.11a.557.557 0 0 1 .208.331h.75a1.123 1.123 0 0 0-.41-.798c-.239-.194-.548-.292-.927-.292-.478 0-.859.147-1.144.442-.284.294-.427.688-.427 1.183 0 .475.14.858.42 1.15.28.292.648.437 1.104.437.382 0 .693-.1.935-.302.24-.202.388-.486.441-.852h-.742a.573.573 0 0 1-.202.373.675.675 0 0 1-.432.128.61.61 0 0 1-.519-.247c-.123-.165-.184-.397-.184-.695 0-.3.065-.536.195-.709a.628.628 0 0 1 .53-.259Zm9.54 1.202h1.437v-.611h-1.438v-.54h1.573v-.625H21.45v3.052h2.423v-.623H22.25v-.653Zm-5.031 1.276h.797v-3.052h-.797v3.052Zm2.669-1.434a13.493 13.493 0 0 0-.153.552 8.246 8.246 0 0 0-.159-.602l-.439-1.568h-.848l1.073 3.052h.748l1.08-3.052h-.842l-.46 1.618ZM2.57 33.915h1.903l4.22-4.427v1.65h-1.09L6.19 32.622h2.505v1.293h1.518v-6.423H8.695L2.57 33.915Zm4.975-15.328a6.548 6.548 0 0 1 1.456 4.125v1.28l-.31-.302a3.76 3.76 0 0 1-1.146-2.706v-2.397Zm-.64 2.571.086.037a4.298 4.298 0 0 0 1.306 2.882l.704.688v1.384h1.21v-3.437a7.738 7.738 0 0 0-2.36-5.571l-.306-.3v-2.053c.767-.13 1.35-.782 1.35-1.568 0-.88-.73-1.594-1.63-1.594-.9 0-1.63.714-1.63 1.594 0 .786.584 1.438 1.351 1.568v1.508l-.313-.306a6.576 6.576 0 0 1-2.005-4.734v-1.09c.861-.253 1.49-1.035 1.49-1.96 0-1.132-.939-2.05-2.096-2.05-1.158 0-2.096.918-2.096 2.05 0 .925.628 1.707 1.49 1.96v1.09c0 2.105.839 4.083 2.361 5.57l1.169 1.143v2.625c-3.247-1.447-5.424-4.484-5.736-7.922a.911.911 0 0 0 .612-.855.921.921 0 0 0-.931-.91.921.921 0 0 0-.932.91c0 .422.294.776.692.88.327 3.696 2.692 6.957 6.214 8.461Zm4.256-15.82v20.811h1.676V5.337c1.134-.348 1.956-1.383 1.956-2.606C14.794 1.223 13.544 0 12 0c-1.543 0-2.794 1.223-2.794 2.731 0 1.223.822 2.258 1.956 2.606Zm.802 22.77h.522c.144 0 .252.03.323.09.072.06.107.15.107.272 0 .126-.034.219-.103.279-.068.06-.175.09-.319.09h-.53v-.731Zm0 1.347h.651c.35 0 .62-.087.806-.26.186-.174.28-.423.28-.747 0-.31-.095-.546-.285-.71-.189-.164-.465-.246-.826-.246h-1.43v3.053h.804v-1.09Z" fill="#3C78FF" mask="url(#b)"/></g></svg>